# xmcd CD database file
#
# Track frame offsets:
#	150
#	18846
#	36750
#	55445
#
# Disc length: 975 seconds
#
# Revision: 5
# Processed by: cddbd v1.5.2PL0 Copyright (c) Steve Scherf et al.
# Submitted via: CDex 1.70beta2
#
DISCID=2a03cd04
DTITLE=sumika - Lovers/「伝言歌」
DYEAR=2016
DGENRE=Rock
TTITLE0=Lovers
TTITLE1=「伝言歌」
TTITLE2=Lovers -instrumental-
TTITLE3=「伝言歌」 -instrumental-
EXTD=YEAR: 2016
EXTT0=
EXTT1=
EXTT2=
EXTT3=
PLAYORDER=
